<svg width="2000" height="1000" viewBox="0 0 2000 1000" fill="none" xmlns="http://www.w3.org/2000/svg">
<path fill-rule="evenodd" clip-rule="evenodd" d="M603.32 629.019H743.56L661.73 528.649C635.68 528.649 626.65 529.079 600.59 528.649C599.09 528.649 597.51 528.579 596.01 528.509C573.53 527.509 553.77 515.979 541.61 498.799C534.16 488.779 529.15 476.819 527.58 463.789C527.08 459.709 526.94 456.629 527.37 452.619C531.3 415.529 562.52 386.609 600.6 386.399L661.67 386.469L743.85 286.029H301.65L428.51 439.869H362.72C395.94 480.099 428.65 520.759 462.37 560.569C481.63 581.049 521.79 628.009 603.33 629.009L603.32 629.019Z" fill="#ADEA28"/>
<path d="M650.97 717.11C647.87 717.11 645.5 716.47 643.83 715.18C642.18 713.87 641.2 711.85 640.88 709.11C640.83 708.45 640.97 707.95 641.31 707.61C641.67 707.25 642.17 707.07 642.81 707.07C643.45 707.07 643.93 707.23 644.23 707.55C644.55 707.87 644.76 708.36 644.85 709C645.06 710.57 645.63 711.67 646.54 712.27C647.47 712.86 648.95 713.16 650.97 713.16H658.7C661.1 713.16 662.73 712.72 663.61 711.85C664.5 710.96 664.95 709.34 664.95 706.99C664.95 704.64 664.49 702.97 663.58 702.08C662.69 701.17 661.06 700.71 658.7 700.71H651.83C648.52 700.71 646.07 699.91 644.48 698.32C642.91 696.73 642.12 694.29 642.12 690.99C642.12 687.69 642.9 685.27 644.45 683.69C646.02 682.12 648.47 681.33 651.78 681.33H658.54C661.44 681.33 663.67 681.95 665.22 683.18C666.79 684.4 667.74 686.28 668.06 688.84C668.13 689.5 667.99 690.01 667.63 690.37C667.29 690.71 666.79 690.88 666.13 690.88C665.5 690.88 665.03 690.72 664.71 690.4C664.39 690.06 664.19 689.58 664.12 688.95C663.91 687.57 663.37 686.61 662.51 686.08C661.67 685.54 660.35 685.27 658.54 685.27H651.78C649.56 685.27 648.05 685.68 647.24 686.5C646.45 687.31 646.06 688.8 646.06 690.98C646.06 693.16 646.46 694.67 647.27 695.52C648.09 696.34 649.61 696.75 651.83 696.75H658.7C662.17 696.75 664.74 697.58 666.4 699.25C668.06 700.91 668.9 703.49 668.9 706.98C668.9 710.47 668.07 713.01 666.4 714.66C664.74 716.29 662.17 717.1 658.7 717.1H650.97V717.11ZM736.24 717.14C732.21 717.14 729.24 716.19 727.33 714.3C725.43 712.39 724.49 709.42 724.49 705.39V683.33C724.49 682.69 724.66 682.19 725 681.85C725.34 681.51 725.83 681.34 726.48 681.34C727.13 681.34 727.61 681.51 727.93 681.85C728.27 682.19 728.44 682.68 728.44 683.33V705.39C728.44 707.36 728.68 708.91 729.16 710.06C729.64 711.19 730.45 711.99 731.58 712.48C732.72 712.96 734.28 713.2 736.25 713.2H742.69C744.64 713.2 746.18 712.96 747.31 712.48C748.45 712 749.27 711.19 749.75 710.06C750.23 708.91 750.48 707.36 750.48 705.39V683.33C750.48 682.69 750.65 682.19 750.99 681.85C751.33 681.51 751.82 681.34 752.47 681.34C753.12 681.34 753.6 681.51 753.92 681.85C754.26 682.19 754.43 682.68 754.43 683.33V705.39C754.43 709.42 753.48 712.39 751.59 714.3C749.69 716.2 746.73 717.14 742.71 717.14H736.27H736.24ZM813.05 717.14C811.73 717.14 811.06 716.48 811.06 715.15V683.32C811.06 682 811.72 681.33 813.05 681.33H825.61C828.81 681.33 831.25 682.18 832.94 683.88C834.62 685.56 835.46 688 835.46 691.21V692.82C835.46 696.02 834.62 698.46 832.94 700.15C831.26 701.84 828.82 702.67 825.61 702.67H815.01V715.15C815.01 716.47 814.36 717.14 813.05 717.14ZM815.01 698.73H825.61C827.72 698.73 829.23 698.27 830.14 697.36C831.05 696.45 831.51 694.94 831.51 692.83V691.22C831.51 689.11 831.05 687.6 830.14 686.69C829.23 685.76 827.72 685.29 825.61 685.29H815.01V698.74V698.73ZM891.18 717.14C889.86 717.14 889.19 716.48 889.19 715.15V683.32C889.19 682 889.85 681.33 891.18 681.33C892.51 681.33 893.14 681.99 893.14 683.32V713.19H908.49C909.81 713.19 910.48 713.84 910.48 715.15C910.48 716.46 909.82 717.14 908.49 717.14H891.18ZM965.64 717.14C964.32 717.14 963.65 716.48 963.65 715.15V683.32C963.65 682 964.31 681.33 965.64 681.33H985.18C986.5 681.33 987.17 681.99 987.17 683.32C987.17 684.65 986.51 685.28 985.18 685.28H967.6V697.09H978.84C980.16 697.09 980.83 697.74 980.83 699.05C980.83 700.36 980.17 701.04 978.84 701.04H967.6V713.2H985.18C986.5 713.2 987.17 713.85 987.17 715.16C987.17 716.47 986.51 717.15 985.18 717.15H965.64V717.14ZM1043.41 717.14C1042.09 717.14 1041.42 716.48 1041.42 715.15V683.32C1041.42 682 1042.08 681.33 1043.41 681.33C1044.29 681.33 1045.01 681.76 1045.58 682.62L1058.49 702.13L1057.63 702.26L1070.59 682.62C1071.13 681.76 1071.92 681.33 1072.98 681.33C1074.04 681.33 1074.62 681.99 1074.62 683.32V715.15C1074.62 716.47 1073.97 717.14 1072.66 717.14C1071.35 717.14 1070.67 716.48 1070.67 715.15V687.27L1071.88 687.67L1060.23 705.03C1059.66 705.87 1058.86 706.29 1057.84 706.29C1057.09 706.29 1056.43 705.87 1055.85 705.03L1044.2 687.67L1045.35 688.02V715.15C1045.35 716.47 1044.7 717.14 1043.39 717.14H1043.41ZM1133.55 717.14C1132.23 717.14 1131.56 716.48 1131.56 715.15V683.32C1131.56 682 1132.22 681.33 1133.55 681.33H1153.09C1154.41 681.33 1155.08 681.99 1155.08 683.32C1155.08 684.65 1154.42 685.28 1153.09 685.28H1135.51V697.09H1146.75C1148.07 697.09 1148.74 697.74 1148.74 699.05C1148.74 700.36 1148.08 701.04 1146.75 701.04H1135.51V713.2H1153.09C1154.41 713.2 1155.08 713.85 1155.08 715.16C1155.08 716.47 1154.42 717.15 1153.09 717.15H1133.55V717.14ZM1211.32 717.14C1210 717.14 1209.33 716.48 1209.33 715.15V683.32C1209.33 682 1209.99 681.33 1211.32 681.33C1212 681.33 1212.66 681.72 1213.31 682.51L1235.26 710.77H1234.29V683.32C1234.29 682 1234.95 681.33 1236.28 681.33C1237.61 681.33 1238.24 681.99 1238.24 683.32V715.15C1238.24 716.47 1237.59 717.14 1236.28 717.14C1235.56 717.14 1234.9 716.75 1234.29 715.96L1212.31 687.7H1213.28V715.15C1213.28 716.47 1212.63 717.14 1211.32 717.14ZM1305.85 717.14C1305.21 717.14 1304.71 716.98 1304.37 716.66C1304.03 716.32 1303.86 715.83 1303.86 715.18V685.31H1293.13C1292.49 685.31 1291.99 685.15 1291.65 684.83C1291.31 684.49 1291.14 684 1291.14 683.35C1291.14 682.7 1291.31 682.21 1291.65 681.87C1291.99 681.53 1292.48 681.36 1293.13 681.36H1318.57C1319.21 681.36 1319.69 681.53 1320.02 681.87C1320.36 682.21 1320.53 682.7 1320.53 683.35C1320.53 684 1320.36 684.49 1320.02 684.83C1319.69 685.15 1319.21 685.31 1318.57 685.31H1307.81V715.18C1307.81 715.79 1307.64 716.27 1307.3 716.63C1306.96 716.97 1306.48 717.14 1305.85 717.14ZM1381.96 717.14C1377.93 717.14 1374.97 716.19 1373.05 714.3C1371.16 712.39 1370.21 709.42 1370.21 705.39V693.05C1370.21 688.99 1371.16 686.02 1373.05 684.14C1374.97 682.24 1377.93 681.31 1381.94 681.35H1388.41C1392.44 681.35 1395.39 682.3 1397.29 684.19C1399.19 686.09 1400.14 689.06 1400.14 693.1V705.39C1400.14 709.42 1399.19 712.39 1397.29 714.3C1395.4 716.2 1392.44 717.14 1388.41 717.14H1381.97H1381.96ZM1381.96 713.19H1388.4C1390.35 713.19 1391.88 712.95 1393.02 712.47C1394.17 711.99 1394.98 711.18 1395.46 710.05C1395.94 708.9 1396.19 707.35 1396.19 705.38V693.09C1396.19 691.14 1395.95 689.6 1395.46 688.47C1394.98 687.32 1394.17 686.51 1393.02 686.03C1391.89 685.53 1390.35 685.28 1388.4 685.28H1381.93C1379.98 685.26 1378.44 685.49 1377.31 685.98C1376.19 686.44 1375.37 687.25 1374.87 688.4C1374.39 689.53 1374.14 691.07 1374.14 693.04V705.38C1374.14 707.35 1374.38 708.9 1374.87 710.05C1375.35 711.18 1376.16 711.98 1377.28 712.47C1378.43 712.95 1379.98 713.19 1381.95 713.19H1381.96ZM1465.01 717.11C1461.92 717.11 1459.53 716.47 1457.88 715.18C1456.23 713.87 1455.25 711.85 1454.93 709.11C1454.87 708.45 1455.02 707.95 1455.36 707.61C1455.72 707.25 1456.22 707.07 1456.86 707.07C1457.5 707.07 1457.98 707.23 1458.28 707.55C1458.6 707.87 1458.81 708.36 1458.89 709C1459.1 710.57 1459.67 711.67 1460.58 712.27C1461.51 712.86 1462.98 713.16 1465 713.16H1472.73C1475.13 713.16 1476.76 712.72 1477.64 711.85C1478.54 710.96 1478.98 709.34 1478.98 706.99C1478.98 704.64 1478.52 702.97 1477.61 702.08C1476.71 701.17 1475.09 700.71 1472.73 700.71H1465.86C1462.55 700.71 1460.1 699.91 1458.51 698.32C1456.93 696.73 1456.14 694.29 1456.14 690.99C1456.14 687.69 1456.92 685.27 1458.48 683.69C1460.06 682.12 1462.5 681.33 1465.81 681.33H1472.57C1475.47 681.33 1477.7 681.95 1479.25 683.18C1480.83 684.4 1481.77 686.28 1482.1 688.84C1482.17 689.5 1482.03 690.01 1481.67 690.37C1481.33 690.71 1480.83 690.88 1480.17 690.88C1479.51 690.88 1479.07 690.72 1478.74 690.4C1478.42 690.06 1478.22 689.58 1478.16 688.95C1477.95 687.57 1477.41 686.61 1476.55 686.08C1475.71 685.54 1474.38 685.27 1472.58 685.27H1465.82C1463.6 685.27 1462.09 685.68 1461.28 686.5C1460.5 687.31 1460.1 688.8 1460.1 690.98C1460.1 693.16 1460.5 694.67 1461.31 695.52C1462.13 696.34 1463.66 696.75 1465.87 696.75H1472.74C1476.21 696.75 1478.78 697.58 1480.44 699.25C1482.1 700.91 1482.93 703.49 1482.93 706.98C1482.93 710.47 1482.1 713.01 1480.44 714.66C1478.78 716.29 1476.21 717.1 1472.74 717.1H1465.01V717.11Z" fill="#EBEBEB"/>
<path d="M935.09 282.859H928.34C796.72 282.859 771.64 359.039 771.64 454.499C771.64 549.959 796.71 626.139 928.34 626.139H935.09C1066.71 626.139 1091.79 549.959 1091.79 454.499C1091.79 359.039 1066.72 282.859 935.09 282.859ZM939.43 549.479H924C893.63 549.479 863.25 533.569 863.25 454.499C863.25 375.429 893.62 359.519 924 359.519H939.43C970.29 359.519 1000.18 375.429 1000.18 454.499C1000.18 533.569 970.29 549.479 939.43 549.479Z" fill="#EBEBEB"/>
<path d="M1244.25 546.59C1232.68 546.59 1230.27 542.73 1230.27 532.13V298.29C1230.27 291.37 1224.66 285.75 1217.73 285.75H1151.19C1144.27 285.75 1138.65 291.36 1138.65 298.29V564.43C1138.65 603.48 1152.15 623.25 1194.1 623.25H1357.06C1363.98 623.25 1369.6 617.64 1369.6 610.71V559.12C1369.6 552.2 1363.99 546.58 1357.06 546.58H1244.24L1244.25 546.59Z" fill="#EBEBEB"/>
<path d="M1541.17 285.75H1415.81C1408.89 285.75 1403.27 291.36 1403.27 298.29V610.72C1403.27 617.64 1408.88 623.26 1415.81 623.26H1541.17C1673.28 623.26 1698.35 562.03 1698.35 454.51C1698.35 346.99 1673.28 285.76 1541.17 285.76V285.75ZM1545.99 546.59H1507.42C1500.5 546.59 1494.88 540.98 1494.88 534.05V374.94C1494.88 368.02 1500.49 362.4 1507.42 362.4H1545.99C1576.36 362.4 1606.74 375.42 1606.74 454.49C1606.74 533.56 1576.37 546.58 1545.99 546.58V546.59Z" fill="#EBEBEB"/>
</svg>
